<svg width="46" height="46" viewBox="0 0 46 46" fill="none" xmlns="http://www.w3.org/2000/svg">
<path d="M8.0469 29.3394C7.71434 29.3394 7.39539 29.4714 7.16024 29.7064C6.92508 29.9414 6.79297 30.2601 6.79297 30.5924C6.79297 30.9248 6.92508 31.2435 7.16024 31.4785C7.39539 31.7135 7.71434 31.8455 8.0469 31.8455H25.6019C25.9345 31.8455 26.2534 31.7135 26.4886 31.4785C26.7238 31.2435 26.8559 30.9248 26.8559 30.5924C26.8559 30.2601 26.7238 29.9414 26.4886 29.7064C26.2534 29.4714 25.9345 29.3394 25.6019 29.3394H8.0469Z" fill="#95C3C7"/>
<path d="M6.79297 36.8581C6.79297 36.5257 6.92508 36.207 7.16024 35.972C7.39539 35.737 7.71434 35.605 8.0469 35.605H18.0783C18.4109 35.605 18.7299 35.737 18.965 35.972C19.2002 36.207 19.3323 36.5257 19.3323 36.8581C19.3323 37.1904 19.2002 37.5091 18.965 37.7441C18.7299 37.9791 18.4109 38.1112 18.0783 38.1112H8.0469C7.71434 38.1112 7.39539 37.9791 7.16024 37.7441C6.92508 37.5091 6.79297 37.1904 6.79297 36.8581Z" fill="#95C3C7"/>
<path fill-rule="evenodd" clip-rule="evenodd" d="M8.04702 4.27781C8.04702 3.2808 8.44335 2.32461 9.14883 1.61962C9.8543 0.914618 10.8111 0.518555 11.8088 0.518555H21.8403C22.838 0.518555 23.7948 0.914618 24.5003 1.61962C25.2057 2.32461 25.6021 3.2808 25.6021 4.27781H29.3638C30.3615 4.27781 31.3184 4.67388 32.0238 5.37888C32.7293 6.08387 33.1256 7.04006 33.1256 8.03707V41.8704C33.1256 42.8674 32.7293 43.8236 32.0238 44.5286C31.3184 45.2336 30.3615 45.6297 29.3638 45.6297H4.28523C3.28754 45.6297 2.33071 45.2336 1.62524 44.5286C0.919768 43.8236 0.523438 42.8674 0.523438 41.8704V8.03707C0.523438 7.04006 0.919768 6.08387 1.62524 5.37888C2.33071 4.67388 3.28754 4.27781 4.28523 4.27781H8.04702ZM3.0313 21.821H10.7693L12.6126 18.7309L14.8885 27.0777L19.9468 20.5679H25.3111C25.6437 20.5679 25.9627 20.4359 26.1978 20.2009C26.433 19.9659 26.5651 19.6472 26.5651 19.3149C26.5651 18.9825 26.433 18.6638 26.1978 18.4288C25.9627 18.1938 25.6437 18.0618 25.3111 18.0618H18.718L15.9882 21.5767L13.4803 12.3803L9.34484 19.3149H3.0313V8.03707C3.0313 7.70473 3.16341 7.38601 3.39857 7.15101C3.63373 6.91601 3.95267 6.78399 4.28523 6.78399H8.04702C8.04702 7.781 8.44335 8.73719 9.14883 9.44219C9.8543 10.1472 10.8111 10.5432 11.8088 10.5432H21.8403C22.838 10.5432 23.7948 10.1472 24.5003 9.44219C25.2057 8.73719 25.6021 7.781 25.6021 6.78399H29.3638C29.6964 6.78399 30.0154 6.91601 30.2505 7.15101C30.4857 7.38601 30.6178 7.70473 30.6178 8.03707V41.8704C30.6178 42.2027 30.4857 42.5215 30.2505 42.7565C30.0154 42.9915 29.6964 43.1235 29.3638 43.1235H4.28523C3.95267 43.1235 3.63373 42.9915 3.39857 42.7565C3.16341 42.5215 3.0313 42.2027 3.0313 41.8704V21.821ZM23.0942 4.27781V6.78399C23.0942 7.11633 22.9621 7.43505 22.7269 7.67005C22.4918 7.90505 22.1728 8.03707 21.8403 8.03707H11.8088C11.4763 8.03707 11.1573 7.90505 10.9222 7.67005C10.687 7.43505 10.5549 7.11633 10.5549 6.78399V4.27781C10.5549 3.94547 10.687 3.62675 10.9222 3.39175C11.1573 3.15675 11.4763 3.02473 11.8088 3.02473H21.8403C22.1728 3.02473 22.4918 3.15675 22.7269 3.39175C22.9621 3.62675 23.0942 3.94547 23.0942 4.27781Z" fill="#95C3C7"/>
<path fill-rule="evenodd" clip-rule="evenodd" d="M41.9034 10.5435C40.9057 10.5435 39.9489 10.9395 39.2434 11.6445C38.5379 12.3495 38.1416 13.3057 38.1416 14.3027V39.7441L41.9034 45.383L45.6652 39.7441V14.3027C45.6652 13.3057 45.2689 12.3495 44.5634 11.6445C43.8579 10.9395 42.9011 10.5435 41.9034 10.5435ZM40.6495 14.3027C40.6495 13.9704 40.7816 13.6516 41.0167 13.4166C41.2519 13.1817 41.5708 13.0496 41.9034 13.0496C42.236 13.0496 42.5549 13.1817 42.7901 13.4166C43.0252 13.6516 43.1573 13.9704 43.1573 14.3027V16.8089H40.6495V14.3027ZM40.6495 38.9848V19.3151H43.1573V38.9848L41.9034 40.8644L40.6495 38.9848Z" fill="#95C3C7"/>
</svg>
