<svg width="45" height="45" viewBox="0 0 45 45" fill="none" xmlns="http://www.w3.org/2000/svg">
<path d="M38.5822 12.3409C38.7403 12.3795 38.9045 12.3862 39.0653 12.3608C39.2261 12.3354 39.3802 12.2782 39.5188 12.1928C39.6573 12.1073 39.7775 11.9951 39.8723 11.8628C39.9671 11.7305 40.0347 11.5807 40.0712 11.4221C40.1077 11.2634 40.1123 11.0991 40.0847 10.9387C40.0572 10.7783 39.998 10.6249 39.9107 10.4875C39.8234 10.3501 39.7097 10.2314 39.5762 10.1384C39.4426 10.0453 39.2919 9.97964 39.1328 9.94527L31.0007 8.07694C30.8413 8.03455 30.675 8.02467 30.5117 8.04788C30.3484 8.0711 30.1915 8.12694 30.0502 8.21207C29.909 8.2972 29.7863 8.40989 29.6895 8.54342C29.5927 8.67695 29.5238 8.82859 29.4868 8.98932C29.4499 9.15005 29.4456 9.31657 29.4744 9.47897C29.5031 9.64137 29.5642 9.79632 29.6541 9.93461C29.744 10.0729 29.8607 10.1917 29.9975 10.2839C30.1342 10.3761 30.2881 10.4399 30.45 10.4714L38.5822 12.3409Z" fill="#95C3C7"/>
<path fill-rule="evenodd" clip-rule="evenodd" d="M34.7913 20.0417C37.3993 20.0417 39.9004 19.0057 41.7446 17.1616C43.5887 15.3174 44.6247 12.8163 44.6247 10.2083C44.6247 7.60037 43.5887 5.09922 41.7446 3.25512C39.9004 1.41101 37.3993 0.375 34.7913 0.375C32.1834 0.375 29.6822 1.41101 27.8381 3.25512C25.994 5.09922 24.958 7.60037 24.958 10.2083C24.958 12.8163 25.994 15.3174 27.8381 17.1616C29.6822 19.0057 32.1834 20.0417 34.7913 20.0417ZM34.7913 17.5833C35.7598 17.5833 36.7189 17.3926 37.6136 17.0219C38.5084 16.6513 39.3214 16.1081 40.0063 15.4232C40.6911 14.7384 41.2343 13.9254 41.6049 13.0306C41.9756 12.1358 42.1663 11.1768 42.1663 10.2083C42.1663 9.23983 41.9756 8.28082 41.6049 7.38604C41.2343 6.49127 40.6911 5.67825 40.0063 4.99342C39.3214 4.30859 38.5084 3.76535 37.6136 3.39472C36.7189 3.02409 35.7598 2.83333 34.7913 2.83333C32.8354 2.83333 30.9595 3.61034 29.5764 4.99342C28.1933 6.3765 27.4163 8.25236 27.4163 10.2083C27.4163 12.1643 28.1933 14.0402 29.5764 15.4232C30.9595 16.8063 32.8354 17.5833 34.7913 17.5833Z" fill="#95C3C7"/>
<path fill-rule="evenodd" clip-rule="evenodd" d="M13.6228 4.36348C12.8275 2.4804 10.1651 2.29111 9.09697 4.04021L0.733717 17.7245C-0.231179 19.3028 0.8468 21.3186 2.72865 21.4526L17.3139 22.4925C19.1946 22.6277 20.5639 20.7864 19.846 19.0877L13.6228 4.36348ZM11.205 5.30748C11.2009 5.31211 11.1972 5.31704 11.1939 5.32223L2.84543 18.9844L2.84788 18.9869C2.85176 18.989 2.85589 18.9907 2.86018 18.9918C2.87448 18.9966 2.88936 18.9995 2.90442 19.0004L17.4909 20.0403C17.5155 20.0427 17.5303 20.0403 17.5377 20.0403C17.5511 20.0378 17.5635 20.0314 17.5733 20.0218L11.3586 5.321L11.3537 5.30871C11.3331 5.29824 11.3105 5.29237 11.2873 5.2915C11.2614 5.28902 11.2353 5.29282 11.2111 5.30257L11.2074 5.3038V5.30502L11.205 5.30748Z" fill="#95C3C7"/>
<path fill-rule="evenodd" clip-rule="evenodd" d="M36.4938 37.6923C38.2667 36.8657 39.6387 35.3687 40.3079 33.5306C40.9771 31.6925 40.8886 29.6638 40.0621 27.8909C39.6528 27.013 39.0746 26.2244 38.3606 25.57C37.6465 24.9155 36.8106 24.4082 35.9004 24.0768C34.0623 23.4077 32.0336 23.4961 30.2607 24.3226L16.8923 30.557C16.0145 30.9662 15.2259 31.5444 14.5716 32.2584C13.9173 32.9725 13.41 33.8084 13.0787 34.7185C12.7474 35.6285 12.5986 36.595 12.6408 37.5626C12.683 38.5301 12.9154 39.4799 13.3246 40.3577C13.7339 41.2355 14.3121 42.0241 15.0261 42.6784C15.7401 43.3328 16.5761 43.8401 17.4861 44.1714C18.3962 44.5026 19.3626 44.6514 20.3302 44.6092C21.2978 44.567 22.2476 44.3347 23.1254 43.9254L36.4938 37.6911V37.6923ZM17.9309 32.7854C17.3393 33.0542 16.8069 33.4376 16.3644 33.9134C15.9218 34.3891 15.578 34.9479 15.3527 35.5574C15.1275 36.1669 15.0253 36.815 15.052 37.4642C15.0788 38.1135 15.2339 38.751 15.5086 39.3399C15.7832 39.9288 16.1718 40.4574 16.652 40.8952C17.1322 41.3329 17.6944 41.6712 18.3061 41.8904C18.9178 42.1096 19.5668 42.2053 20.2158 42.1721C20.8647 42.1389 21.5006 41.9774 22.0868 41.6969L27.5762 39.1365L23.4216 30.2251L17.9309 32.7842V32.7854ZM29.8047 38.0979L25.6489 29.1864L31.2994 26.5511C31.8859 26.2674 32.523 26.103 33.1737 26.0677C33.8243 26.0323 34.4754 26.1267 35.0893 26.3452C35.7031 26.5637 36.2674 26.9021 36.7494 27.3406C37.2313 27.7791 37.6213 28.3091 37.8966 28.8996C38.1719 29.4902 38.3271 30.1296 38.3531 30.7806C38.3792 31.4317 38.2756 32.0814 38.0483 32.6921C37.821 33.3028 37.4746 33.8622 37.0292 34.3378C36.5838 34.8134 36.0484 35.1957 35.4539 35.4626L29.8047 38.0979Z" fill="#95C3C7"/>
</svg>
