<svg width="35" height="39" viewBox="0 0 35 39" fill="none" xmlns="http://www.w3.org/2000/svg">
<path d="M17.3721 3.30176L17.4044 6.76163" stroke="#062A3F" stroke-width="1.3" stroke-miterlimit="10" stroke-linecap="round"/>
<path d="M15.5171 5.04499L19.2599 5.01855" stroke="#062A3F" stroke-width="1.3" stroke-miterlimit="10" stroke-linecap="round"/>
<path d="M24.6934 21.8125C24.8322 22.278 24.9355 22.7534 25.0024 23.2345C25.1506 24.3111 25.1186 25.4048 24.9078 26.4708" stroke="#062A3F" stroke-width="1.3" stroke-miterlimit="10" stroke-linecap="round"/>
<path d="M10.2718 21.6924C9.96433 22.8637 9.84807 24.077 9.92757 25.2853C10.0206 26.6366 10.3528 27.9607 10.9087 29.1958" stroke="#062A3F" stroke-width="1.3" stroke-miterlimit="10" stroke-linecap="round"/>
<path d="M11.7227 32.8667C12.772 32.8667 13.6226 32.0161 13.6226 30.9668C13.6226 29.9175 12.772 29.0669 11.7227 29.0669C10.6734 29.0669 9.82275 29.9175 9.82275 30.9668C9.82275 32.0161 10.6734 32.8667 11.7227 32.8667Z" stroke="#062A3F" stroke-width="1.3" stroke-miterlimit="10" stroke-linecap="round"/>
<path d="M22.1906 34.5249C21.8455 34.3737 21.3344 34.083 21.008 33.535C20.7782 33.1491 20.6284 32.6165 20.9849 30.6949C21.3338 28.8142 21.5083 27.8738 22.0764 27.354C22.8979 26.6025 24.0232 26.5438 24.7033 26.5866" stroke="#062A3F" stroke-width="1.3" stroke-miterlimit="10" stroke-linecap="round"/>
<path d="M24.7134 34.8494C25.0847 34.8357 25.6426 34.7529 26.1127 34.3743C26.4775 34.0804 26.7712 33.6231 27.035 31.688C27.2946 29.7833 27.4244 28.831 27.0589 28.1734C26.5181 27.2003 25.4694 26.7878 24.8108 26.6128" stroke="#062A3F" stroke-width="1.3" stroke-miterlimit="10" stroke-linecap="round"/>
<path d="M24.6834 8.57473H24.803V2.5668C24.803 1.9776 24.2533 1.5 23.5753 1.5H11.2175C10.5305 1.5 9.97363 1.98392 9.97363 2.58088V8.57476H10.0932C10.0141 9.06743 9.97412 9.56559 9.97363 10.0646C9.97363 14.6854 13.2933 18.4314 17.3883 18.4314C21.4833 18.4314 24.803 14.6854 24.803 10.0645C24.8025 9.56555 24.7625 9.0674 24.6834 8.57473V8.57473Z" stroke="#062A3F" stroke-width="1.3" stroke-miterlimit="10"/>
<path d="M10.0332 8.32178H24.743" stroke="#062A3F" stroke-width="1.3" stroke-miterlimit="10"/>
<path d="M22.471 21.3379L17.3883 29.9932L12.3056 21.3379C4.73784 21.897 1.37459 29.5412 1.00112 36.7798C0.97454 37.295 1.4246 37.727 1.99117 37.727H32.7854C33.352 37.727 33.8021 37.295 33.7755 36.7798C33.402 29.5412 29.1117 21.3379 22.471 21.3379Z" stroke="#062A3F" stroke-width="1.3" stroke-miterlimit="10"/>
</svg>
