<svg width="37" height="41" viewBox="0 0 37 41" fill="none" xmlns="http://www.w3.org/2000/svg">
<path d="M13.4409 39.0054H2.70518C2.3822 39.0054 2.12036 38.7939 2.12036 38.5329V20.8958C2.12197 20.8303 2.1384 20.7661 2.16843 20.7079C2.19845 20.6498 2.24129 20.5992 2.2937 20.56L18.01 7.98636C18.1287 7.89767 18.2729 7.84971 18.4211 7.84961C18.5692 7.84951 18.7135 7.89728 18.8323 7.98581L34.6014 20.5599C34.654 20.5991 34.697 20.6497 34.7271 20.708C34.7573 20.7663 34.7738 20.8306 34.7754 20.8962V38.5329C34.7754 38.7939 34.5136 39.0054 34.1906 39.0054H23.3161C22.9923 39.0054 22.7301 38.7929 22.7312 38.5313C22.746 35.0585 22.7608 31.5858 22.7756 28.113C22.7767 27.8533 22.5181 27.6415 22.1967 27.6389L14.722 27.5782C14.3986 27.5756 14.1339 27.7855 14.1313 28.0469L14.0257 38.5367C14.0231 38.7962 13.7621 39.0054 13.4409 39.0054Z" stroke="#062A3F" stroke-width="1.3" stroke-miterlimit="10"/>
<path d="M2.0874 15.1985L6.08768 12.0323C6.12026 12.0083 6.14692 11.9771 6.16562 11.9411C6.18432 11.9052 6.19457 11.8654 6.19558 11.8249V6.6432C6.19558 6.48284 6.35647 6.3528 6.55498 6.3528H8.78569C8.98416 6.3528 9.14509 6.48281 9.14509 6.6432V8.94588C9.14509 9.20028 9.52129 9.33168 9.75065 9.15742L18.2007 2.73704C18.2727 2.68562 18.3591 2.65805 18.4476 2.6582C18.5361 2.65836 18.6223 2.68623 18.6942 2.7379L34.9528 15.1985" stroke="#062A3F" stroke-width="1.3" stroke-linecap="round" stroke-linejoin="round"/>
</svg>
