<svg width="37" height="41" viewBox="0 0 37 41" fill="none" xmlns="http://www.w3.org/2000/svg">
<path d="M13.4407 39.0054H2.70494C2.38195 39.0054 2.12012 38.7939 2.12012 38.5329V20.8958C2.12172 20.8303 2.13816 20.7661 2.16819 20.7079C2.19821 20.6498 2.24104 20.5992 2.29346 20.56L18.0098 7.98636C18.1285 7.89767 18.2726 7.84971 18.4208 7.84961C18.569 7.84951 18.7132 7.89728 18.832 7.98581L34.6011 20.5599C34.6537 20.5991 34.6967 20.6497 34.7269 20.708C34.757 20.7663 34.7735 20.8306 34.7752 20.8962V38.5329C34.7752 38.7939 34.5133 39.0054 34.1903 39.0054H23.3158C22.992 39.0054 22.7299 38.7929 22.731 38.5313C22.7458 35.0585 22.7606 31.5858 22.7754 28.113C22.7765 27.8533 22.5179 27.6415 22.1964 27.6389L14.7217 27.5782C14.3983 27.5756 14.1337 27.7855 14.131 28.0469L14.0255 38.5367C14.0229 38.7962 13.7618 39.0054 13.4407 39.0054Z" stroke="#19BE6F" stroke-width="1.3" stroke-miterlimit="10"/>
<path d="M2.0874 15.199L6.08768 12.0328C6.12026 12.0087 6.14692 11.9775 6.16562 11.9416C6.18432 11.9056 6.19457 11.8659 6.19558 11.8254V6.64369C6.19558 6.48332 6.35647 6.35329 6.55498 6.35329H8.78569C8.98416 6.35329 9.14509 6.4833 9.14509 6.64369V8.94637C9.14509 9.20077 9.52129 9.33216 9.75065 9.15791L18.2007 2.73753C18.2727 2.68611 18.3591 2.65854 18.4476 2.65869C18.5361 2.65885 18.6223 2.68671 18.6942 2.73839L34.9528 15.199" stroke="#19BE6F" stroke-width="1.3" stroke-linecap="round" stroke-linejoin="round"/>
</svg>
