<svg width="40" height="50" viewBox="0 0 40 50" fill="none" xmlns="http://www.w3.org/2000/svg">
<path fill-rule="evenodd" clip-rule="evenodd" d="M12.4165 0.0834961C11.4054 0.0834961 10.4356 0.485169 9.72066 1.20015C9.00568 1.91513 8.604 2.88486 8.604 3.896H4.7915C3.78037 3.896 2.81064 4.29767 2.09566 5.01265C1.38068 5.72763 0.979004 6.69736 0.979004 7.7085V43.2918C0.979004 44.303 1.38068 45.2727 2.09566 45.9877C2.81064 46.7027 3.78037 47.1043 4.7915 47.1043H20.0415V44.5627H4.7915C4.45446 44.5627 4.13122 44.4288 3.89289 44.1904C3.65456 43.9521 3.52067 43.6289 3.52067 43.2918V7.7085C3.52067 7.37145 3.65456 7.04821 3.89289 6.80988C4.13122 6.57155 4.45446 6.43766 4.7915 6.43766H8.604C8.604 7.4488 9.00568 8.41852 9.72066 9.13351C10.4356 9.84849 11.4054 10.2502 12.4165 10.2502H22.5832C23.5943 10.2502 24.564 9.84849 25.279 9.13351C25.994 8.41852 26.3957 7.4488 26.3957 6.43766H30.2082C30.5452 6.43766 30.8685 6.57155 31.1068 6.80988C31.3451 7.04821 31.479 7.37145 31.479 7.7085V26.771H34.0207V7.7085C34.0207 6.69736 33.619 5.72763 32.904 5.01265C32.189 4.29767 31.2193 3.896 30.2082 3.896H26.3957C26.3957 2.88486 25.994 1.91513 25.279 1.20015C24.564 0.485169 23.5943 0.0834961 22.5832 0.0834961H12.4165ZM11.1457 3.896C11.1457 3.55895 11.2796 3.23571 11.5179 2.99738C11.7562 2.75905 12.0795 2.62516 12.4165 2.62516H22.5832C22.9202 2.62516 23.2435 2.75905 23.4818 2.99738C23.7201 3.23571 23.854 3.55895 23.854 3.896V6.43766C23.854 6.77471 23.7201 7.09795 23.4818 7.33628C23.2435 7.5746 22.9202 7.7085 22.5832 7.7085H12.4165C12.0795 7.7085 11.7562 7.5746 11.5179 7.33628C11.2796 7.09795 11.1457 6.77471 11.1457 6.43766V3.896ZM16.229 19.146V15.3335H18.7707V19.146H22.5832V21.6877H18.7707V25.5002H16.229V21.6877H12.4165V19.146H16.229ZM21.3123 30.5835C21.3123 30.2464 21.4462 29.9232 21.6846 29.6849C21.9229 29.4466 22.2461 29.3127 22.5832 29.3127H37.8332C38.1702 29.3127 38.4935 29.4466 38.7318 29.6849C38.9701 29.9232 39.104 30.2464 39.104 30.5835V39.2112C39.1039 40.6756 38.7424 42.1174 38.0514 43.4085C37.3603 44.6996 36.3613 45.8002 35.1428 46.6125L30.9135 49.4338C30.7046 49.5731 30.4592 49.6475 30.2082 49.6475C29.9571 49.6475 29.7117 49.5731 29.5029 49.4338L25.2735 46.6125C24.0553 45.8003 23.0563 44.6999 22.3653 43.409C21.6743 42.1182 21.3126 40.6767 21.3123 39.2125V30.5835ZM23.854 31.8543V39.2112C23.8541 40.2573 24.1125 41.2871 24.6062 42.2094C25.0999 43.1316 25.8137 43.9177 26.6841 44.4978L30.2082 46.8502L33.7322 44.4991C34.6026 43.919 35.3164 43.1329 35.8101 42.2106C36.3038 41.2884 36.5622 40.2585 36.5623 39.2125V31.8543H23.854ZM29.8358 41.6486L34.9192 36.5653L33.1222 34.7683L28.9373 38.9532L27.2942 37.31L25.4972 39.107L28.0389 41.6486C28.2772 41.8869 28.6004 42.0207 28.9373 42.0207C29.2743 42.0207 29.5975 41.8869 29.8358 41.6486Z" fill="#95C3C7"/>
</svg>
