<svg width="36" height="41" viewBox="0 0 36 41" fill="none" xmlns="http://www.w3.org/2000/svg">
<path d="M35 39.0055V12.9053H32.042V39.0055H35Z" stroke="#062A3F" stroke-width="1.3" stroke-miterlimit="10"/>
<path d="M32.0615 12.2702C32.5521 11.1564 33.0426 10.0425 33.5332 8.92871C34.0155 10.038 34.4979 11.1473 34.9802 12.2566C34.9413 12.4728 34.9024 12.6889 34.8635 12.9051H32.1709C32.1344 12.6935 32.098 12.4818 32.0615 12.2702Z" stroke="#062A3F" stroke-width="1.3" stroke-miterlimit="10"/>
<path d="M27.3707 5.22303H19.5339V3.19803C19.5339 2.81738 19.2512 2.50879 18.9023 2.50879H11.1358C10.7869 2.50879 10.5041 2.81738 10.5041 3.19803V5.22303H2.4524C1.79345 5.22303 1.25928 5.80592 1.25928 6.52491V37.7031C1.25928 38.4221 1.79345 39.005 2.4524 39.005H27.3707C28.0296 39.005 28.5638 38.4221 28.5638 37.7031V6.52491C28.5638 5.80592 28.0296 5.22303 27.3707 5.22303Z" stroke="#062A3F" stroke-width="1.3" stroke-miterlimit="10"/>
<path d="M6.09521 22.1138H23.3566" stroke="#062A3F" stroke-width="1.3" stroke-miterlimit="10" stroke-linecap="round"/>
<path d="M6.09521 27.1201H23.3566" stroke="#062A3F" stroke-width="1.3" stroke-miterlimit="10" stroke-linecap="round"/>
<path d="M6.09521 31.9995H23.3566" stroke="#062A3F" stroke-width="1.3" stroke-miterlimit="10" stroke-linecap="round"/>
<path d="M14.4209 11.9482H23.3567" stroke="#062A3F" stroke-width="1.3" stroke-miterlimit="10" stroke-linecap="round"/>
<path d="M14.4209 17.0312H23.3567" stroke="#062A3F" stroke-width="1.3" stroke-miterlimit="10" stroke-linecap="round"/>
<path d="M11.2928 11.9482H6.52979V16.9522H11.2928V11.9482Z" stroke="#062A3F" stroke-width="1.3" stroke-miterlimit="10" stroke-linecap="round"/>
</svg>
