<svg width="49" height="46" viewBox="0 0 49 46" fill="none" xmlns="http://www.w3.org/2000/svg">
<path d="M8.20138 33.4254C8.51925 33.7445 8.76283 34.1297 8.91476 34.5538C9.06668 34.9778 9.12321 35.4301 9.08031 35.8784C8.86508 37.9535 8.45702 40.004 7.86144 42.0034C12.1336 41.0142 14.7429 39.8689 15.9281 39.2686C16.6003 38.9282 17.3744 38.8475 18.1024 39.042C20.1893 39.5984 22.3402 39.8784 24.5 39.875C36.7378 39.875 45.9375 31.2786 45.9375 21.5C45.9375 11.7245 36.7378 3.125 24.5 3.125C12.2622 3.125 3.0625 11.7245 3.0625 21.5C3.0625 25.9958 4.95206 30.1669 8.20138 33.4254ZM6.69156 45.3844C5.96596 45.5283 5.238 45.66 4.508 45.7795C3.8955 45.8775 3.43 45.2405 3.67194 44.6709C3.94386 44.0296 4.1931 43.3789 4.41919 42.7201L4.42837 42.6894C5.18787 40.4844 5.8065 37.9487 6.03312 35.5875C2.27544 31.8206 0 26.89 0 21.5C0 9.66038 10.9699 0.0625 24.5 0.0625C38.0301 0.0625 49 9.66038 49 21.5C49 33.3396 38.0301 42.9375 24.5 42.9375C22.0734 42.9408 19.6569 42.6257 17.3123 42.0004C15.7198 42.8058 12.2929 44.2728 6.69156 45.3844Z" fill="#95C3C7"/>
<path d="M12.25 13.8438C12.25 13.4376 12.4113 13.0482 12.6985 12.761C12.9857 12.4738 13.3751 12.3125 13.7812 12.3125H35.2188C35.6249 12.3125 36.0143 12.4738 36.3015 12.761C36.5887 13.0482 36.75 13.4376 36.75 13.8438C36.75 14.2499 36.5887 14.6393 36.3015 14.9265C36.0143 15.2137 35.6249 15.375 35.2188 15.375H13.7812C13.3751 15.375 12.9857 15.2137 12.6985 14.9265C12.4113 14.6393 12.25 14.2499 12.25 13.8438ZM12.25 21.5C12.25 21.0939 12.4113 20.7044 12.6985 20.4172C12.9857 20.1301 13.3751 19.9688 13.7812 19.9688H35.2188C35.6249 19.9688 36.0143 20.1301 36.3015 20.4172C36.5887 20.7044 36.75 21.0939 36.75 21.5C36.75 21.9061 36.5887 22.2956 36.3015 22.5828C36.0143 22.8699 35.6249 23.0312 35.2188 23.0312H13.7812C13.3751 23.0312 12.9857 22.8699 12.6985 22.5828C12.4113 22.2956 12.25 21.9061 12.25 21.5ZM12.25 29.1562C12.25 28.7501 12.4113 28.3607 12.6985 28.0735C12.9857 27.7863 13.3751 27.625 13.7812 27.625H26.0312C26.4374 27.625 26.8268 27.7863 27.114 28.0735C27.4012 28.3607 27.5625 28.7501 27.5625 29.1562C27.5625 29.5624 27.4012 29.9518 27.114 30.239C26.8268 30.5262 26.4374 30.6875 26.0312 30.6875H13.7812C13.3751 30.6875 12.9857 30.5262 12.6985 30.239C12.4113 29.9518 12.25 29.5624 12.25 29.1562Z" fill="#95C3C7"/>
</svg>
