<svg width="36" height="41" viewBox="0 0 36 41" fill="none" xmlns="http://www.w3.org/2000/svg">
<path d="M24.6758 10.0374C23.9512 10.7368 22.2941 9.78909 20.975 7.9184C20.8516 7.7442 20.736 7.5674 20.6271 7.39061C20.0425 8.7101 18.7077 9.96068 16.9729 10.6458C14.2745 11.7118 11.635 11.0059 11.076 9.07018C10.5169 7.13448 12.2507 4.70089 14.948 3.6349C16.7351 2.92901 18.4966 2.9992 19.6447 3.69079C19.6931 3.53048 19.7801 3.38451 19.8981 3.26569C20.6238 2.56631 22.2808 3.51529 23.6 5.38468C24.9192 7.2554 25.4016 9.338 24.6758 10.0374Z" stroke="#062A3F" stroke-width="1.1" stroke-miterlimit="10"/>
<path d="M22.9259 23.1441C22.4625 23.5395 20.6471 24.9941 17.9096 24.9993C15.1534 25.0046 13.3242 23.5371 12.8635 23.144C5.37236 23.6851 2.04314 31.0832 1.67347 38.0889C1.64718 38.5875 2.09266 39.0056 2.6535 39.0056H33.1359C33.6967 39.0056 34.1422 38.5875 34.1159 38.0889C33.7462 31.0833 29.4994 23.144 22.9259 23.1441Z" stroke="#062A3F" stroke-width="1.3" stroke-miterlimit="10"/>
<path d="M11.1295 14.738C11.1295 14.738 12.8459 20.3818 18.04 20.3305C18.04 20.3305 23.6557 19.253 24.4988 14.738H25.7033C25.7033 14.738 26.9077 13.9685 26.6066 12.4806C26.6066 12.4806 26.8475 10.7874 25.6431 10.4283C25.6431 10.4283 26.2152 3.14278 18.04 3.34801C9.86486 3.55324 10.4069 10.6335 10.4069 10.6335C10.4069 10.6335 9.02174 10.5822 9.14219 12.5319C9.26263 14.4815 9.56374 14.738 11.1295 14.738Z" stroke="#062A3F" stroke-width="1.1" stroke-miterlimit="10"/>
<path d="M24.6602 14.738C24.6602 14.738 22.9439 20.3818 17.7497 20.3305C17.7497 20.3305 12.134 19.253 11.2909 14.738H10.0864C10.0864 14.738 8.88199 13.9684 9.18309 12.4806C9.18309 12.4806 8.9422 10.7874 10.1466 10.4283C10.1466 10.4283 9.57453 3.14278 17.7497 3.34801C25.9249 3.55324 25.3829 10.6335 25.3829 10.6335C25.3829 10.6335 26.768 10.5822 26.6475 12.5319C26.5271 14.4815 26.226 14.738 24.6602 14.738Z" stroke="#062A3F" stroke-width="0.9" stroke-miterlimit="10"/>
<path d="M21.2231 39.0055H14.5659L16.1704 31.9419H19.6185L21.2231 39.0055Z" stroke="#062A3F" stroke-width="1.3" stroke-miterlimit="10"/>
<path d="M15.3721 27.2583H20.4179L19.619 29.6918H16.1709L15.3721 27.2583Z" stroke="#062A3F" stroke-width="1.3" stroke-miterlimit="10"/>
</svg>
